<svg version="1.1"
	 xmlns="http://www.w3.org/2000/svg" xmlns:xlink="http://www.w3.org/1999/xlink" xmlns:a="http://ns.adobe.com/AdobeSVGViewerExtensions/3.0/"
	 x="0px" y="0px" width="1400.2px" height="334px" viewBox="0 0 1400.2 334" style="enable-background:new 0 0 1400.2 334;"
	 xml:space="preserve">
<g id="logo">
	<path id="XMLID_40_" fill-rule="evenodd" clip-rule="evenodd" fill="currentColor" class="logo-element" d="M802.6,78.7c-4.4,0-8.3,2-11.7,6c-3.1,3.4-4.6,6.7-4.6,9.7c0,0.4,0.1,0.9,0.3,1.5
		c0.4,2.8,2.3,6,5.7,9.4c2.9,3,6.1,4.6,9.7,4.6c0.6,0,1.2-0.1,1.7-0.3c4-0.4,7-2.6,8.9-6.6c1.9-3.6,2.9-7,2.9-10V92
		c-0.2-3.8-2.2-6.2-6-7.1C805.9,83.8,803.6,81.7,802.6,78.7z"/>
	<path id="XMLID_39_" fill-rule="evenodd" clip-rule="evenodd" fill="currentColor" class="logo-element" d="M1148,78.7c-4.4,0-8.3,2-11.7,6c-3.1,3.4-4.6,6.7-4.6,9.7c0,0.4,0.1,0.9,0.3,1.5
		c0.4,2.8,2.3,6,5.7,9.4c2.9,3,6.1,4.6,9.7,4.6c0.6,0,1.2-0.1,1.7-0.3c4-0.4,7-2.6,8.9-6.6c1.9-3.6,2.9-7,2.9-10V92
		c-0.2-3.8-2.2-6.2-6-7.1C1151.2,83.8,1149,81.7,1148,78.7z"/>
	<path id="XMLID_36_" fill-rule="evenodd" clip-rule="evenodd" fill="currentColor" class="logo-element" d="M622.4,274.2c-5.9-4.4-11.3-9.6-16.3-15.7c-1.5-1.9-3.1-3.7-4.6-5.4c0.4-0.8,0.9-1.6,1.5-2.3
		c6.1-10.7,10.7-23.5,14-38.5c1.7-8.2,2.9-16.7,3.7-25.6c0.6-6.5,0.9-12.9,0.9-19.4v-7.1c-0.5-15.8-2.1-32.5-4.7-49.9
		c-2.7-17.3-7.4-31.7-14.3-43.1c-3.6-6.1-7.9-10.9-12.8-14.5c-4.8-3.5-10.4-5.2-16.8-5.2H572c-18.1,0.6-31.6,7.5-40.6,20.8
		c-9.1,13.1-15.4,28.2-18.9,45.4c-1.7,9.3-2.9,18.6-3.7,28c-0.4,7.6-0.6,14.8-0.6,21.7v4.6c0.2,10.9,1.1,21.1,2.6,30.8
		c1.5,9.7,3.8,18.5,6.9,26.5c5.5,15,13.6,26.5,24.2,34.5c8.4,6.3,18.5,9.4,30.5,9.4c3.5,0,6.9-0.2,10.3-0.6c4.2-0.5,8.2-2.7,12-6.6
		c0.4,0.4,0.8,0.8,1.2,1.2c3.4,4.2,7,8.2,10.6,12c3.4,3.8,6.7,6.7,9.7,8.6c1.2,1,2.4,1.5,3.7,1.5c1.6,0.2,3.2-0.3,4.9-1.5
		c1.5-1,2.3-2,2.3-3.1C626.8,278.8,625.3,276.7,622.4,274.2z M597,247.8c-1.7-2.1-3.4-4.1-4.9-6c-2.1-2.6-4.1-4.9-6-6.8
		c-1.9-1.9-3.6-3.2-5.2-3.7c-1.9-0.9-3.5-1.4-4.8-1.4c-1.4,0-2.5,0.5-3.5,1.4c-0.7,0.8-1.1,1.7-1.1,2.6c0,1.4,0.8,3,2.3,4.9
		c0.9-0.4,3.5,2,7.7,7.1c2.9,3.6,6,7.5,9.4,11.7c-2.3,2.4-4.7,3.9-7.2,4.2h-0.6c-4.2,0.2-8.9-4.4-14.3-14
		c-5.7-9.9-10.6-21.8-14.5-35.9c-2.3-7.6-4.1-15.5-5.4-23.6c-1.5-8-2.4-15.8-2.6-23.4v-23.4c0-9.1,0.4-18.5,1.2-28.2
		c1.3-14.3,3.8-27.1,7.4-38.5c3.4-11.2,9-16.8,16.5-16.8h0.3c5.9,0,11,1.7,15.4,5.1c4.4,3.6,8.2,8.3,11.4,14
		c6.1,10.8,10.3,24,12.6,39.6c2.3,15.6,3.5,29.9,3.7,43.1v1.1c0,6.1-0.4,12.8-1.2,20.2c-1,7.8-2.2,15.6-3.7,23.4
		c-2.7,14.5-6.4,27.3-11.2,38.8C598.5,244.8,597.8,246.3,597,247.8z"/>
	<path id="XMLID_33_" fill-rule="evenodd" clip-rule="evenodd" fill="currentColor" class="logo-element" d="M1396,199.2c-1.6-0.2-3.1,0.2-4.6,1.1c-2.3,4.8-5.1,10.3-8.3,16.5c-3.2,6.1-6.6,12.2-10,18.3
		c-6.7,11.6-13.2,21.9-19.7,31.1c-6.7,9.1-11.5,13.3-14.5,12.6c-2.5-0.4-3.1-6.5-2-18.3c1.2-12,2.4-25.4,3.7-40.5
		c0.6-6.5,1.1-12.9,1.5-19.4c0.4-6.7,0.5-12.9,0.3-18.8c-0.4-11.2-1.9-20.6-4.5-28.2c-2.7-7.8-7.4-11.8-14.2-12
		c-8-0.2-15.6,3.6-22.8,11.4c-7.2,7.8-11.7,15-13.6,21.7c-0.4-2.4-0.9-5.1-1.4-8c-0.8-3-1.7-6.1-2.6-9.1c-2.1-5.5-5.1-10.5-8.9-15.1
		c-3.8-4.6-8.6-6.9-14.3-6.9h-0.3c-5.7,0-11.2,3.4-16.6,10.3c-5.4,7.3-9.4,13-12.3,17.4c-1.7-5-3.7-9.2-6-12.8
		c-2.3-3.4-4.6-6.3-6.9-8.6c-4.6-4-8.7-6-12.3-6c-3.6,0-5.4,1.4-5.4,4.3v0.3c3.4,3.4,4.8,12,4,25.7c-0.6,11.3-1.3,23.2-1.9,35.7
		c-1.1,2-2.3,4.2-3.8,6.8c-3.6,6.3-7.6,13.1-12,20.5c-6.9,11.2-13.9,21.8-21.1,31.6c-7.2,9.9-12.4,14.7-15.4,14.5
		c-1.4-0.2-2.4-1.3-3.2-3.4c-0.7-2.1-1.2-5.1-1.4-8.9c-0.6-6.7-0.5-15.3,0.3-25.9c0.6-10.7,1.5-21.4,2.9-32.2
		c1.3-13.7,2.8-25.9,4.5-36.8c1.7-10.9,2.7-16.7,2.9-17.7c0-1.7-0.3-3.2-0.9-4.3c-0.7-1.2-1.7-2.1-2.8-2.9c-1.6-0.9-3.5-1.4-5.7-1.4
		c-2.1,0-4.5,0.5-7.2,1.4c-5.1,1.9-8.4,4.8-9.7,8.6c1.7,2.5,1.2,10.3-1.4,23.4c-2.2,10.2-4,21-5.4,32.5c-0.7,1.4-1.5,2.8-2.3,4.4
		c-3.4,6.7-7.4,13.9-12,21.7c-6.9,11.8-14.1,22.6-21.7,32.5c-7.6,9.9-13.9,14.1-18.8,12.6c-1-0.2-1.1-4.2-0.3-12
		c1-7.8,2.4-17.8,4.3-30c1-6.7,2.1-13.7,3.4-21.1c1.2-7.6,2.5-15.4,4-23.4c3.1-18.2,6.1-36.6,9.1-55.1c3-18.6,5.3-34.6,6.9-48
		c0.7-7,1.3-13.1,1.7-18.2c0.2-5.2,0.1-8.7-0.3-10.6c-0.6-3.3-1.6-5.9-3.2-8c-1.5-2.1-3.1-3.7-4.8-4.9c-2.7-1.5-5.4-2.3-8-2.3
		c-2.1,0.2-4.2,0.7-6.3,1.5c-5.2,2.1-8.3,5.8-9.4,11.1c2.1,1.1,3.3,4.8,3.5,11.1c0.2,6.3-0.2,13.8-1.2,22.6
		c-0.4,4.6-0.9,9.4-1.7,14.5c-0.7,5.1-1.5,10.2-2.3,15.1c-1.3,9.5-2.7,18.3-4.3,26.5c-1.3,8.2-2.3,14.1-2.8,17.7
		c-2.1-9.5-7.7-16.1-16.8-19.7c-9.1-3.4-18.3-2.9-27.6,1.5c-5,2.4-9.6,6.2-14,11.1c-4.2,5-7.5,11.2-10,18.8
		c-2.8,9-4.6,17.4-5.4,25.4c-0.4,3.6-0.6,7.2-0.6,10.6c0,2.6,0.1,5.1,0.4,7.6c-2.6,5-5.3,10.2-8.2,15.5c-5.9,10.5-11.9,20-18,28.5
		c-6.1,8.5-11,12.3-14.8,11.1c-1.5-0.4-2-4.6-1.4-12.6c0.5-8,1.5-17.7,2.8-29.1c0.6-6.3,1.2-12.7,1.7-19.4c0.6-6.7,1.1-13.3,1.5-20
		c0.7-15.4,0.2-29.1-1.7-41.1c-1.9-12.2-6.9-18.5-14.8-19.1c-3.2-0.2-6.4,0.6-9.4,2.3c-3.3,1.7-6.3,4-9.1,6.8
		c-5.3,5.4-9.9,11.6-13.7,18.8c-3.8,7.4-6.3,13.3-7.4,17.7c-0.4-7.4-0.7-14.8-0.9-22.2c-0.2-7.6-1-14-2.6-19.1
		c-0.7-2.6-1.8-4.8-3.1-6.5c-1.3-1.8-3-2.7-5.1-2.9c-0.8-0.2-1.6-0.3-2.6-0.3c-2.3,0-4.5,0.3-6.8,0.9c-3,1.1-5.5,3.2-7.4,6.3
		c3.4,2.7,4.3,9.9,2.6,21.7c-1.8,11.6-3.6,24.9-5.7,40c-0.1,0.5-0.1,1.1-0.2,1.6c-1.2,2.3-2.9,5.2-4.9,8.8
		c-3.6,6.3-7.6,13.1-12,20.5c-6.9,11.2-13.9,21.8-21.1,31.6c-7.2,9.9-12.4,14.7-15.4,14.5c-1.4-0.2-2.4-1.3-3.2-3.4
		c-0.7-2.1-1.2-5.1-1.4-8.9c-0.6-6.7-0.5-15.3,0.3-25.9c0.6-10.7,1.5-21.4,2.9-32.2c1.3-13.7,2.8-25.9,4.5-36.8
		c1.7-10.9,2.7-16.7,2.9-17.7c0-1.7-0.3-3.2-0.9-4.3c-0.7-1.2-1.7-2.1-2.8-2.9c-1.6-0.9-3.5-1.4-5.7-1.4c-2.1,0-4.5,0.5-7.2,1.4
		c-5.1,1.9-8.4,4.8-9.7,8.6c1.7,2.5,1.2,10.3-1.4,23.4c-2.1,9.5-3.8,19.5-5.1,30c-1,2.2-2.3,4.6-3.7,7.3
		c-3.3,6.1-6.8,12.7-10.6,19.7c-5.9,10.5-12,20.1-18.2,29.1c-6.3,8.8-11.1,12.8-14.5,12.3c-2.8-0.7-4.7-4.2-5.7-10.3
		c-0.8-6-1-13.6-0.6-22.5c0.2-4.8,0.5-9.7,0.9-14.8c0.4-5.3,0.9-10.5,1.4-15.7c1.2-10.1,2.3-19.7,3.5-28.8c1.1-9,1.9-16,2.2-21.1
		c-0.3-5.7-4.2-9.2-11.4-10.6c-7.3-1.1-11.4,0.4-12.3,4.6c0.2,6.9-0.2,14.3-1.2,22.2c-1,8.2-2.4,16.3-4.3,24.5
		c-3.5,15.2-7.8,28.7-13.1,40.4c-5.5,11.8-10.7,17.7-15.4,17.7c-4.6-0.1-7-5.4-7.2-15.7c-0.4-10.4-0.1-21.8,0.9-34.2
		c0.6-8.3,1.1-16.4,1.7-24.2c0.6-7.8,0.8-14.2,0.6-19.1c-1.3-4.2-3.1-8-5.2-11.4c-1.9-3.4-4-6.3-6.3-8.6c-4.4-4.4-8.8-6.8-13.2-7.4
		h-0.8c-3.8,0-6.5,2.4-8,7.1c2.5,4,3.3,12.2,2.3,24.5c-1,12.6-1.3,25.5-0.9,39c0.2,7.4,0.9,14.6,2,21.7c1.2,6.8,3.1,12.9,5.7,18.2
		c2.6,5.1,6.1,9.2,10.3,12.3c4.4,3,10,4.6,16.8,4.8c3.3,0,6.4-1.3,9.4-4c3.1-2.8,5.9-6.4,8.6-10.6c3.8-6.1,7-12.6,9.4-19.7
		c2.3-6.9,3.9-11.5,4.9-14c0,4.4,0.1,11.1,0.3,20.2c0,9.1,1.7,17.7,4.9,25.6c1.7,4.2,4,7.9,6.9,11.1c2.9,3.3,6.6,5.4,11.2,6.6
		c0.8,0.2,1.6,0.3,2.6,0.3c3.8,0,7.8-1.9,12-5.7c5.1-4.6,10.2-10.5,15.1-17.7c5-7.1,9.5-14.6,13.7-22.8c1-1.9,2-3.8,3-5.6
		c-0.1,2.8-0.2,5.5-0.2,8.2v3.2c0.2,7.8,1.2,14.8,3.2,21.1c1.9,5.9,4.8,10.8,8.8,14.5c4,3.6,9.4,5.7,16.3,6.3h0.9
		c3.6,0,7.9-2.4,12.8-7.1c5.1-5.2,10.4-11.5,16-19.1c5.3-7.3,10.5-15,15.4-23.4c2.6-4.4,5-8.4,7.2-12.2c0,0.5-0.1,1.1-0.1,1.6
		c-0.4,4-0.6,8-0.6,12c0,4.4,0.2,8.7,0.6,12.8c4.2,8.6,9.1,11.9,14.8,10c5.7-1.9,11-5.4,15.9-10.6c0.8-1.7,1.4-5.7,2-12
		c0.6-6.1,1.1-12.9,1.5-20.6c0.2-4,0.4-8.1,0.6-12.3c0-4.2,0.1-8.1,0.3-11.7c1.1-3.4,2.6-7.1,4.3-11.1c1.7-3.8,3.6-7.6,5.7-11.4
		c3.8-7.3,8-13.6,12.6-19.1c4.4-5.5,8.2-8.2,11.4-8c1.9,0.2,1.8,6.8-0.3,19.7c-1.9,12.9-3.6,27.5-5.1,43.6c-1,11-1.3,21.9-1.1,32.6
		c0,10.7,1.3,19.9,4,27.7c1.7,4.9,4,9.1,6.8,12.3c2.7,3.3,6.2,5.4,10.6,6.6c1.1,0.2,2.2,0.3,3.1,0.3c6.1,0,12.4-4,18.8-12
		c7.8-9.5,14.9-20,21.4-31.6c0.9-1.6,1.7-3.3,2.6-4.9c2.5,7.8,6.5,14.3,11.8,19.4c7.6,7.6,17.4,10.9,29.4,10
		c4.3-0.2,8.7-3.4,13.1-9.7c3.2-4.6,6.2-9.7,8.9-15.4l0.3,9.7c0.3,9.7,1.8,17.9,4.2,24.5c1.4,3.6,3,6.7,4.9,9.1
		c2.1,2.3,4.7,3.8,7.7,4.6c1.2,0.4,2.4,0.6,3.7,0.6c4.4,0,9-1.9,13.7-5.7c6.1-5,12-11.3,17.7-19.1c3-4.2,6-8.6,8.9-13.1
		c2.8-4.6,5.6-9.1,8.3-13.7c1-1.9,2-3.7,3-5.5c-0.1,2.4-0.2,4.8-0.2,7.1v3.2c0.2,7.8,1.2,14.8,3.2,21.1c1.9,5.9,4.8,10.8,8.8,14.5
		c4,3.6,9.4,5.7,16.3,6.3h0.9c3.6,0,7.9-2.4,12.8-7.1c5.1-5.2,10.4-11.5,16-19.1c5.3-7.3,10.5-15,15.4-23.4
		c2.7-4.5,5.2-8.7,7.4-12.6c-0.1,4.6-0.2,9.1,0,13.5c0,7.8,0.6,14.7,1.8,20.8c3.1,5.3,7.8,7.5,14.3,6.6c6.5-0.8,11.9-5.2,16.1-13.1
		v-35.1c0-12.9-0.7-25.1-2-36.5c0-2.1,0.7-4.7,2-7.7c1.4-2.9,3-5.9,4.9-9.1c2.9-4.8,6.1-9.1,9.7-12.8c3.5-3.8,6.3-5.8,8.6-6
		c2.7,0,4.4,4.6,5.2,13.7c0.8,8.9,1.2,19.1,1.2,30.5c-0.2,7.6-0.3,15.1-0.3,22.5c-0.2,7.4-0.3,13.8-0.3,19.1
		c2.1,4.4,6.7,6.6,13.7,6.6c7.1,0.2,11.2-1.4,12.6-4.9c0.8-4,1.1-9.9,0.9-17.7c-0.2-7.8-0.1-15.7,0.3-23.7
		c1.7-9.9,5.8-19.1,12.2-27.7c6.7-8.4,12.2-12.6,16.8-12.6c2.5,0.2,3.6,3.9,3.4,11.1c-0.2,7.4-0.8,16.5-1.8,27.4
		c-0.6,5.9-1.1,12.1-1.7,18.5c-0.6,6.5-1,12.9-1.2,19.4c-0.7,15,0,28.7,2.3,41.1c2.1,12.2,7.5,19.2,16.2,21.1
		c0.7,0.2,1.6,0.3,2.5,0.3c3.4,0,7.1-1.6,11.1-4.9c4.7-4.2,9.6-9.6,14.5-16.3c7.4-9.9,14.4-21.2,20.8-34c6.7-12.7,11.7-23,15.1-30.8
		C1398.9,200,1397.5,199.4,1396,199.2z M1052.2,192.6c-1.2,8.6-2.1,17.9-2.9,27.9c-0.2,0.8-0.3,1.5-0.3,2c-1.1,2.5-2.3,5.2-3.4,8
		c-2.9,6.3-5.9,12.1-9.1,17.4c-3.2,5.3-6.1,8-8.5,8c-2.9,0-5.5-3.3-7.7-10c-2.5-6.7-3.8-15-4-25.1c0-5.5,0.3-11.2,0.9-17.1
		c0.8-6.1,2-12.3,3.7-18.5c5.2-18.8,11-28.4,17.7-28.8c6.4-0.6,11.9,5.3,16.2,17.4C1054.2,177.8,1053.3,184.1,1052.2,192.6z"/>
</g>
<g id="XMLID_28_">
	<path id="XMLID_31_" fill-rule="evenodd" clip-rule="evenodd" fill="currentColor" class="logo-element" d="M163.6,328.2c64.5,14.8,161,5.7,190.6-80.8c9.6-28.1,10.6-51.4,5.8-71.3
		c-0.7,12.3-3.4,25.8-8.4,40.5c-1.6,4.6-3.3,8.5-5,12.1c-5.9,12-14.1,25.9-23.1,34.6c-4.5,4.3-9.2,8-14.4,12
		c-33.7,25.8-89.6,35.6-148.1,22.2c-30.5-7-55.4-19-77.4-36.1c-9.8-7.5-22.4-19.2-34.9-32.7c14.7,7.7,31.4,12.1,49.1,12.1
		c13.4,0,26.2-2.5,38.1-7.1c13,9.2,27.1,17.3,40,22.2c28.1,10.7,58.6,11.4,86.4-7.2c10.5-7.1,17.9-16.6,20.5-28
		c0.5-2.2,0.7-4.4,0.7-6.4c-17.2,30.5-53.9,35.6-87,28.4c-24.2-5.3-48.5-18.6-66.3-35.9c-5.7-5.5-10.2-11-17.7-18.9
		c2.7,0,5.3-0.1,8-0.4c12.9-1.4,25.5-6.1,36.1-11.1c28.8-13.7,70.5-32.6,102.7-20.9c15.5,5.7,26.2,17,38.9,29.3
		c-4.4-12.3-7.5-22.8-9.5-31.7c14.6,9.8,32.4,15.1,51.2,14c-36.4-2.2-66.6-31-69.4-68.4c-3.1-40.9,27.5-76.6,68.4-79.7
		c40.9-3.1,76.6,27.5,79.7,68.4c0,0.4,0.1,0.8,0.1,1.2c0.2-3.7,0.2-7.4-0.1-11.2c-3.5-46-43.7-80.4-89.7-76.9
		c-46,3.5-80.4,43.7-76.9,89.7c1.2,16.3,7.1,31.1,16.2,43.3c-9.2-4.8-20.1-7.3-34.9-6c-19.5,1.7-49.4,14.3-66.5,22.5
		c-19.6,9.4-47,17.5-69.2,1.9c-35.9-25.2-19.6-54.2-13.8-76.7c-28,12.6-29.1,84.2-1.8,103.3c4,2.8,8.1,4.9,12.4,6.4
		c-0.3,3.4,2.4,9.3,6.2,15.2C46.6,207.7-1.7,166.9,27.7,92.4C14.4,95.4,3.7,121.9,1,144.6c-0.3,2.6-0.5,5.2-0.7,7.8
		c0-0.1-0.1-0.2-0.1-0.4c-1.1,18.5,2.7,34.2,7.6,46.9C30.3,257.3,109.9,315.8,163.6,328.2z"/>
	<path id="XMLID_30_" fill-rule="evenodd" clip-rule="evenodd" fill="currentColor" class="logo-element" d="M337.4,76.7c14.8-6.6,26.9-1.6,35.3,11.6C376.5,64,345.3,58,337.4,76.7z"/>
	<path id="XMLID_29_" fill-rule="evenodd" clip-rule="evenodd" fill="currentColor" class="logo-element" d="M452.6,117.8c-11.3-0.7-18.2-2.1-31.2-13c-2,11.5-6.1,20.7-12.2,27.7
		C433,137.6,447.4,132.8,452.6,117.8z"/>
</g>
</svg>